<?xml version="1.0" standalone="no"?>
<!DOCTYPE svg PUBLIC "-//W3C//DTD SVG 20010904//EN"
 "http://www.w3.org/TR/2001/REC-SVG-20010904/DTD/svg10.dtd">
<svg version="1.0" xmlns="http://www.w3.org/2000/svg"
 width="1080.000000pt" height="202.000000pt" viewBox="0 0 1080.000000 605.000000"
 preserveAspectRatio="xMidYMid meet">

<g transform="translate(0.000000,605.000000) scale(0.100000,-0.100000)"
fill="#000000" stroke="none">
<path d="M2914 5941 l-67 -101 -259 0 c-251 0 -258 -1 -258 -20 0 -19 7 -20
245 -20 l245 0 -62 -95 -63 -95 -277 0 c-271 0 -278 0 -278 -20 0 -19 7 -20
261 -20 143 0 259 -4 257 -8 -1 -4 -32 -54 -68 -110 l-65 -101 -292 -1 c-286
0 -293 0 -293 -20 0 -20 7 -20 275 -20 151 0 275 -2 275 -5 0 -3 -36 -59 -80
-125 l-80 -120 -310 0 c-303 0 -310 0 -310 -20 0 -19 8 -20 295 -22 l295 -3
-95 -142 -95 -143 -330 0 c-323 0 -330 0 -330 -20 0 -19 8 -20 315 -22 l315
-3 -112 -167 -111 -168 -354 0 c-346 0 -353 0 -353 -20 0 -20 7 -20 340 -20
l340 0 -130 -195 -130 -195 -382 -2 c-354 -3 -383 -4 -386 -20 -3 -17 21 -18
367 -20 l370 -3 -152 -232 -152 -232 -417 -1 c-411 0 -418 0 -418 -20 0 -20 7
-20 401 -20 230 0 399 -4 397 -9 -1 -5 -84 -131 -183 -280 l-180 -271 -417 0
c-411 0 -418 0 -418 -20 0 -20 7 -20 400 -20 220 0 400 -2 400 -5 0 -3 -102
-158 -227 -345 l-226 -340 -174 0 c-147 0 -173 -2 -173 -15 0 -13 24 -15 160
-15 88 0 160 -2 160 -4 0 -3 -72 -114 -160 -248 -131 -198 -160 -249 -160
-278 0 -31 20 -5 187 248 l186 282 484 0 c266 0 482 -3 480 -7 -2 -5 -104
-196 -227 -425 l-223 -418 -443 0 c-437 0 -444 0 -444 -20 0 -20 7 -20 430
-20 237 0 430 -2 430 -5 0 -3 -128 -244 -285 -536 -157 -292 -285 -535 -285
-539 0 -4 7 -10 15 -14 10 -3 21 7 34 32 11 20 143 267 294 547 l274 510 542
3 c539 2 542 2 536 -18 -3 -11 -101 -250 -216 -532 -115 -282 -209 -518 -209
-524 0 -7 6 -14 14 -17 15 -6 16 -4 312 725 l149 368 544 0 543 0 -7 -27 c-6
-26 -279 -1005 -291 -1045 -4 -13 0 -18 15 -18 14 0 23 10 29 33 5 17 74 263
152 545 l144 512 543 0 c299 0 543 -3 543 -8 0 -4 -36 -243 -80 -532 -44 -289
-80 -531 -80 -537 0 -7 9 -13 20 -13 11 0 20 5 20 11 0 6 36 248 80 538 44
290 80 530 80 534 0 4 246 7 546 7 l547 0 -6 -178 c-4 -97 -9 -325 -12 -507
-3 -181 -8 -347 -10 -367 -5 -35 -3 -38 18 -38 l24 0 7 358 c3 196 9 441 13
545 l6 187 544 0 c428 0 543 -3 543 -12 0 -7 25 -247 55 -532 30 -286 55 -525
55 -533 0 -7 9 -13 20 -13 11 0 20 6 20 13 0 7 -25 249 -55 538 -30 288 -55
527 -55 532 0 4 244 7 543 7 l543 0 123 -527 c67 -291 125 -536 127 -545 3
-10 14 -18 25 -18 15 0 18 5 14 22 -70 298 -245 1053 -245 1060 0 4 244 8 543
8 l542 0 159 -443 c245 -681 236 -656 252 -650 8 3 14 10 14 17 0 6 -85 248
-190 536 -104 289 -190 528 -190 533 0 4 243 7 541 7 l540 0 146 -297 c80
-164 201 -412 268 -550 97 -199 127 -252 139 -247 9 3 16 10 16 14 0 4 -117
246 -260 538 -143 293 -260 534 -260 537 0 3 194 5 430 5 423 0 430 0 430 20
0 20 -7 20 -443 20 l-442 0 -184 377 c-102 208 -195 399 -208 426 l-23 47 484
0 484 0 163 -265 c148 -240 164 -262 167 -232 2 28 -20 70 -138 260 -77 124
-140 229 -140 232 0 3 63 5 140 5 118 0 140 2 140 15 0 13 -24 15 -152 15
l-153 0 -212 343 -211 342 364 3 c356 2 364 3 364 22 0 20 -7 20 -378 20
l-378 0 -172 278 -171 277 402 5 c372 5 402 6 405 23 3 16 -22 17 -416 17
l-419 0 -142 229 c-77 126 -141 232 -141 235 0 3 167 6 371 6 347 0 370 1 367
18 -3 16 -31 17 -388 20 l-385 3 -118 192 -117 192 340 3 c332 2 340 3 340 22
0 20 -7 20 -354 20 l-354 0 -101 164 c-56 90 -101 166 -101 170 0 3 142 6 315
6 308 0 315 0 315 20 0 20 -7 20 -332 20 l-333 1 -87 142 -87 142 295 3 c286
2 294 3 294 22 0 20 -7 20 -308 20 l-309 0 -76 123 -75 122 276 5 c253 5 277
6 280 23 3 16 -16 17 -291 17 l-294 0 -66 108 -65 107 259 3 c251 2 259 3 259
22 0 19 -7 20 -274 20 l-274 0 -56 93 -56 92 245 3 c237 2 245 3 245 22 0 19
-7 20 -260 20 l-259 0 -62 101 c-54 88 -64 99 -76 86 -13 -13 -8 -25 36 -97
28 -45 51 -83 51 -86 0 -2 -107 -4 -238 -4 l-237 0 -48 95 c-42 86 -62 107
-80 89 -3 -4 14 -46 39 -95 l44 -89 -244 0 -244 0 -33 95 c-31 87 -48 111 -63
86 -4 -5 7 -46 24 -91 16 -45 30 -83 30 -86 0 -2 -110 -4 -243 -4 l-244 0 -17
83 c-20 96 -28 112 -49 104 -13 -5 -12 -16 4 -84 10 -43 19 -84 19 -90 0 -10
-54 -13 -239 -13 -274 0 -245 -13 -256 113 -6 68 -9 77 -27 77 -19 0 -19 -4
-13 -77 4 -43 9 -86 11 -95 5 -17 -11 -18 -240 -18 l-246 0 0 96 c0 86 -2 95
-17 92 -15 -3 -18 -17 -21 -96 l-3 -92 -244 0 -244 0 4 28 c3 15 9 54 15 86
13 77 13 76 -9 76 -16 0 -21 -12 -31 -72 -6 -40 -13 -83 -16 -95 l-4 -23 -240
0 c-132 0 -240 3 -240 8 0 4 9 44 21 90 12 45 19 85 16 88 -18 18 -37 -13 -58
-95 l-24 -91 -242 0 c-134 0 -243 1 -243 3 0 2 15 41 34 88 19 46 32 87 29 91
-14 24 -35 -2 -69 -87 l-37 -95 -243 0 -243 0 46 86 c40 75 44 87 31 100 -13
13 -21 3 -68 -85 l-53 -101 -238 0 c-132 0 -239 2 -239 5 0 3 22 38 48 78 65
97 64 93 47 107 -11 9 -25 -6 -81 -89z m434 -150 c-1 -5 -23 -48 -48 -95 l-45
-86 -258 0 -257 0 62 95 63 95 243 0 c139 0 242 -4 240 -9z m503 -83 l-37 -93
-257 -3 -258 -2 27 52 c15 29 38 72 51 96 l25 42 243 0 244 0 -38 -92z m569
83 c0 -4 -4 -21 -9 -37 -5 -16 -17 -55 -26 -86 l-16 -58 -254 0 c-140 0 -255
4 -255 8 0 5 12 37 26 73 15 35 30 74 35 87 9 22 9 22 254 22 135 0 245 -4
245 -9z m530 -11 c0 -10 -5 -53 -11 -95 l-11 -75 -260 0 c-214 0 -259 2 -255
13 3 8 15 51 27 95 l22 82 244 0 c236 0 244 -1 244 -20z m540 -37 c0 -32 -3
-75 -6 -95 l-7 -38 -253 0 c-172 0 -254 3 -254 11 0 16 21 153 25 167 3 9 62
12 250 12 l245 0 0 -57z m534 20 c3 -21 8 -64 12 -95 l6 -58 -262 0 c-235 0
-262 2 -256 16 3 9 6 51 6 95 l0 79 244 0 244 0 6 -37z m550 -45 c10 -45 20
-87 23 -95 4 -11 -42 -13 -255 -13 l-260 0 -7 68 c-3 37 -9 79 -11 95 l-6 27
249 0 248 0 19 -82z m545 -6 c17 -48 31 -91 31 -95 0 -4 -115 -7 -255 -7
l-254 0 -11 43 c-6 23 -15 58 -21 77 -20 75 -37 70 235 70 l243 0 32 -88z
m546 -9 l44 -93 -257 0 -257 0 -29 83 c-16 45 -31 88 -34 95 -3 10 47 12 242
10 l247 -3 44 -92z m541 7 c29 -47 53 -88 54 -92 0 -5 -114 -8 -253 -8 l-252
0 -48 95 -47 95 246 -2 247 -3 53 -85z m-5033 -250 l-58 -110 -272 0 -272 0
72 110 72 110 258 0 258 0 -58 -110z m613 93 c-4 -10 -23 -60 -43 -110 l-36
-93 -274 0 -274 0 58 110 58 110 259 0 c242 0 258 -1 252 -17z m563 -15 c-5
-18 -19 -68 -30 -110 l-21 -78 -274 0 c-151 0 -274 1 -274 3 0 6 72 182 81
200 9 15 32 17 269 17 l259 0 -10 -32z m568 5 c-3 -16 -11 -65 -17 -110 l-12
-83 -274 0 c-151 0 -274 2 -274 6 0 5 48 179 55 202 3 9 66 12 266 12 l262 0
-6 -27z m563 -83 l0 -110 -275 0 c-213 0 -275 3 -275 13 0 6 7 53 15 102 8 50
15 93 15 98 0 4 117 7 260 7 l260 0 0 -110z m575 23 c3 -49 9 -98 12 -110 l5
-23 -276 0 -276 0 0 110 0 110 264 0 264 0 7 -87z m576 -10 c12 -54 24 -104
26 -110 4 -10 -54 -13 -270 -13 l-275 0 -6 33 c-3 17 -8 67 -12 110 l-7 77
261 0 260 0 23 -97z m579 -15 l39 -108 -274 0 -274 0 -10 38 c-12 44 -41 171
-41 178 0 2 117 3 261 2 l261 -3 38 -107z m575 2 l55 -110 -276 2 -276 3 -38
108 -39 107 260 0 259 0 55 -110z m573 6 c34 -57 62 -107 62 -110 0 -3 -120
-6 -268 -6 l-267 0 -53 105 c-28 58 -52 107 -52 110 0 3 116 5 258 5 l257 -1
63 -103z m-5332 -278 l-65 -123 -292 -3 -292 -2 18 27 c10 16 48 72 83 126
l65 97 274 0 274 0 -65 -122z m612 -3 l-50 -125 -289 0 c-159 0 -289 3 -289 6
0 4 28 60 63 125 l62 119 277 0 276 0 -50 -125z m642 115 c0 -5 -14 -61 -32
-125 l-31 -115 -293 0 -294 0 21 53 c12 28 30 75 41 102 11 28 24 60 29 73 l9
22 275 0 c172 0 275 -4 275 -10z m599 -2 c0 -7 -8 -62 -17 -123 l-18 -110
-293 -3 -293 -2 5 22 c4 13 19 69 34 126 l27 102 278 0 c216 0 278 -3 277 -12z
m597 -49 c-3 -34 -6 -91 -6 -125 l0 -64 -293 0 -294 0 12 78 c7 42 16 98 19
125 l7 47 281 0 281 0 -7 -61z m598 39 c3 -13 8 -54 11 -93 3 -38 9 -85 12
-102 l5 -33 -296 0 -296 0 0 43 c0 23 3 79 7 125 l6 82 273 0 274 0 4 -22z
m623 -100 l29 -123 -290 -3 c-159 -1 -291 -1 -293 2 -2 2 -8 46 -13 97 -6 52
-12 106 -15 122 l-4 27 278 0 279 0 29 -122z m608 10 c22 -62 41 -119 43 -126
3 -10 -57 -12 -289 -10 l-293 3 -28 115 c-15 63 -27 118 -28 123 0 4 125 7
278 7 l277 0 40 -112z m615 -15 l59 -123 -292 0 -292 0 -43 118 c-23 64 -42
120 -42 125 0 4 124 6 275 5 l275 -3 60 -122z m608 7 c39 -65 72 -121 72 -124
0 -3 -129 -6 -288 -6 l-287 0 -63 125 -62 125 278 0 277 -1 73 -119z m-5598
-176 c0 -8 -139 -266 -149 -277 -4 -4 -145 -6 -314 -5 l-307 3 95 143 95 142
290 0 c160 0 290 -3 290 -6z m623 -36 c-9 -24 -35 -88 -58 -143 l-41 -100
-312 -3 c-172 -1 -312 0 -312 3 0 3 34 68 76 145 l76 140 294 0 294 0 -17 -42z
m642 11 c-4 -18 -22 -82 -39 -143 l-32 -111 -312 -3 c-172 -1 -312 1 -312 5 0
5 25 70 56 146 l57 137 294 0 295 0 -7 -31z m639 4 c-3 -16 -13 -80 -22 -143
l-18 -115 -315 -3 -316 -2 41 145 40 145 298 0 298 0 -6 -27z m636 -65 c0 -51
-3 -117 -6 -145 l-7 -53 -312 0 -312 0 19 123 c10 67 20 132 23 145 l5 22 295
0 295 0 0 -92z m634 70 c6 -27 26 -220 26 -248 0 -19 -9 -20 -316 -20 l-317 0
7 38 c3 20 6 85 6 145 l0 107 295 0 295 0 4 -22z m664 -115 c18 -76 32 -141
32 -145 0 -5 -142 -8 -315 -8 l-315 0 -1 28 c0 15 -6 80 -13 145 l-12 117 296
0 296 0 32 -137z m645 15 c24 -68 47 -133 51 -145 l7 -23 -314 0 -313 0 -32
138 c-18 75 -32 140 -32 145 0 4 132 7 294 7 l294 0 45 -122z m648 1 c33 -67
65 -132 70 -145 l9 -24 -314 0 c-290 0 -314 1 -319 18 -3 9 -26 74 -51 145
l-46 127 295 0 295 0 61 -121z m642 8 c37 -62 77 -127 88 -144 l21 -33 -314 0
-315 0 -64 136 c-35 75 -65 140 -67 145 -2 5 126 9 290 9 l293 -1 68 -112z
m-5966 -259 c-13 -24 -55 -100 -92 -170 l-68 -128 -334 0 c-183 0 -333 2 -333
5 0 3 50 80 110 170 l110 165 316 0 316 0 -25 -42z m693 35 c0 -4 -30 -81 -66
-170 l-67 -163 -334 0 c-266 0 -334 3 -331 13 2 7 41 83 87 170 l85 157 313 0
c172 0 313 -3 313 -7z m678 -10 c-3 -10 -25 -87 -48 -170 l-43 -153 -333 0
c-276 0 -334 2 -334 14 0 11 40 113 114 291 l15 35 317 0 c296 0 316 -1 312
-17z m678 0 c-2 -10 -14 -83 -26 -163 -12 -80 -24 -148 -27 -152 -5 -9 -673
-11 -673 -2 0 3 21 79 46 170 l47 164 319 0 c299 0 319 -1 314 -17z m674 -130
c0 -82 -3 -158 -6 -170 l-6 -23 -334 0 c-297 0 -334 2 -334 16 0 18 37 268 45
302 l5 22 315 0 315 0 0 -147z m688 45 c7 -57 15 -133 18 -170 l7 -68 -337 0
-336 0 0 170 0 170 319 0 318 0 11 -102z m704 -63 c20 -88 37 -163 38 -167 0
-5 -151 -8 -335 -8 -260 0 -337 3 -340 13 -4 12 -35 287 -35 313 0 12 52 14
317 12 l318 -3 37 -160z m664 88 c15 -43 42 -117 60 -165 17 -48 29 -90 26
-93 -8 -8 -672 -6 -672 3 0 4 -18 80 -39 170 l-38 162 317 0 318 0 28 -77z
m724 -83 c44 -88 80 -164 80 -170 0 -7 -115 -10 -334 -10 l-334 0 -10 28 c-6
15 -30 83 -55 152 -25 69 -48 133 -52 143 -7 16 12 17 309 17 l316 0 80 -160z
m696 -1 c54 -89 101 -166 102 -170 2 -5 -147 -9 -330 -9 l-334 0 -82 166 c-45
91 -82 167 -82 170 0 2 141 4 313 4 l314 0 99 -161z m-6386 -225 c0 -3 -46
-90 -102 -195 l-102 -189 -364 0 -364 0 19 29 c10 16 68 103 128 195 l110 166
338 0 c185 0 337 -3 337 -6z m711 -41 c-58 -147 -134 -329 -140 -336 -4 -4
-169 -6 -367 -5 l-361 3 60 110 c32 61 79 147 103 193 l45 82 339 0 340 0 -19
-47z m739 36 c0 -5 -23 -93 -52 -195 l-51 -184 -364 0 c-200 0 -363 3 -363 8
0 4 34 91 76 195 l77 187 338 0 c230 0 339 -3 339 -11z m725 -21 c-3 -18 -14
-91 -25 -163 -11 -71 -22 -145 -25 -162 l-6 -33 -366 0 -365 0 6 23 c3 12 27
100 53 194 l48 173 343 0 343 0 -6 -32z m725 -140 c0 -95 -3 -183 -6 -195 l-6
-23 -365 0 -365 0 6 28 c3 15 15 90 26 167 11 77 23 152 26 168 l6 27 339 0
339 0 0 -172z m730 157 c0 -19 28 -284 35 -337 l5 -38 -365 0 -365 0 0 195 0
195 345 0 c304 0 345 -2 345 -15z m766 -175 c24 -102 44 -188 44 -192 0 -5
-164 -8 -364 -8 l-365 0 -6 43 c-8 59 -35 316 -35 333 0 12 52 14 341 12 l342
-3 43 -185z m747 3 c37 -104 67 -191 67 -195 0 -5 -164 -8 -365 -8 -201 0
-365 3 -365 7 0 7 -79 352 -85 371 -4 9 69 12 338 12 l343 0 67 -187z m751
-11 l96 -192 -368 2 -367 3 -67 185 c-37 102 -67 188 -67 193 -1 4 152 6 338
5 l339 -3 96 -193z m726 38 c52 -85 106 -172 119 -192 l23 -38 -364 0 -363 0
-98 195 -97 195 342 -2 341 -3 97 -155z m-6852 -279 c-1 -5 -57 -111 -123
-235 l-120 -225 -398 -1 -398 0 49 73 c27 39 97 145 155 235 l106 162 366 0
c218 0 365 -4 363 -9z m778 -8 c-4 -10 -46 -116 -94 -235 l-87 -218 -398 0
-397 0 26 53 c26 52 125 235 191 355 l34 62 366 0 c343 0 365 -1 359 -17z
m784 10 c0 -5 -28 -110 -62 -235 l-63 -228 -397 0 c-219 0 -398 2 -398 5 0 8
169 424 181 448 9 16 37 17 374 17 201 0 365 -3 365 -7z m779 -15 c0 -13 -15
-117 -32 -233 l-33 -210 -397 -3 c-218 -1 -397 1 -397 5 -1 5 27 110 62 236
l63 227 367 0 368 0 -1 -22z m779 -208 c-3 -127 -7 -233 -10 -235 -3 -3 -182
-4 -399 -3 l-394 3 34 233 35 232 369 0 370 0 -5 -230z m786 208 c5 -24 46
-413 46 -436 0 -9 -89 -12 -401 -12 l-402 0 7 61 c3 34 6 140 6 235 l0 174
370 0 370 0 4 -22z m832 -208 c29 -124 53 -228 54 -232 0 -5 -180 -8 -400 -8
-337 0 -400 2 -400 14 0 21 -39 397 -45 429 l-5 27 372 -2 371 -3 53 -225z
m810 -5 c46 -126 84 -231 84 -232 0 -2 -180 -3 -400 -3 -220 0 -400 2 -400 4
0 3 -41 180 -94 404 l-14 62 370 -2 371 -3 83 -230z m809 -2 l114 -233 -399 0
-398 0 -10 28 c-6 15 -39 108 -75 207 -36 99 -70 192 -76 208 l-11 27 370 -2
370 -3 115 -232z m803 8 c78 -126 142 -232 142 -235 0 -3 -177 -6 -393 -6
l-392 0 -118 235 -117 235 368 0 369 0 141 -229z m-7482 -383 c-30 -57 -97
-182 -149 -278 l-94 -175 -437 -3 -436 -2 187 280 186 280 399 0 399 0 -55
-102z m894 93 c0 -4 -48 -125 -106 -267 -58 -143 -108 -265 -111 -271 -4 -10
-101 -13 -440 -13 -263 0 -433 4 -431 9 2 5 68 131 148 280 l145 271 398 0
c218 0 397 -4 397 -9z m848 -8 c-3 -10 -38 -136 -78 -280 l-74 -263 -438 0
-438 0 16 38 c8 20 58 143 111 272 52 129 97 238 100 243 2 4 184 7 405 7 376
0 400 -1 396 -17z m846 0 c-2 -10 -19 -126 -39 -258 -19 -132 -37 -250 -40
-262 l-5 -23 -435 0 c-239 0 -435 3 -435 8 0 4 34 128 75 275 41 147 75 270
75 272 0 3 182 5 404 5 380 0 404 -1 400 -17z m846 -51 c0 -38 -3 -164 -7
-280 l-6 -212 -439 0 -438 0 5 23 c3 12 21 128 40 257 19 129 37 245 40 258
l5 22 400 0 400 0 0 -68z m850 49 c0 -11 11 -125 25 -253 14 -128 25 -245 25
-260 l0 -28 -437 0 -436 0 6 188 c4 103 7 229 7 280 l0 92 405 0 c394 0 405
-1 405 -19z m844 2 c6 -20 126 -533 126 -539 0 -2 -197 -4 -438 -4 l-438 0
-27 273 c-15 149 -28 275 -27 280 0 4 180 7 399 7 372 0 400 -1 405 -17z m941
-261 l101 -277 -435 -3 c-239 -1 -436 -1 -437 1 -2 2 -31 120 -64 263 -33 142
-63 267 -66 277 -5 16 18 17 398 17 l403 0 100 -278z m879 2 c75 -152 136
-278 136 -280 0 -2 -196 -3 -436 -2 l-437 3 -98 270 c-54 149 -98 273 -99 278
0 4 179 7 399 7 l399 0 136 -276z m878 1 c92 -148 168 -273 168 -277 0 -5
-195 -8 -432 -8 l-433 1 -137 279 -137 280 402 -2 402 -3 167 -270z m-8132
-397 c-21 -40 -104 -194 -184 -343 l-145 -270 -480 -3 c-265 -1 -481 0 -481 3
0 3 102 158 227 345 l226 340 438 0 438 0 -39 -72z m960 69 c0 -1 -62 -156
-139 -342 l-139 -340 -481 -3 c-264 -1 -481 1 -481 4 0 3 82 159 182 345 l182
339 438 0 c241 0 438 -1 438 -3z m916 -24 c-4 -16 -46 -170 -95 -343 l-88
-315 -483 -3 c-459 -2 -482 -1 -478 16 3 9 65 165 138 345 l134 327 439 0 439
0 -6 -27z m928 10 c-2 -10 -24 -155 -49 -323 -25 -168 -48 -315 -51 -327 l-4
-23 -480 0 c-377 0 -480 3 -480 13 -1 6 41 162 92 345 l92 332 442 0 c416 0
442 -1 438 -17z m920 -165 c-2 -101 -7 -256 -10 -345 l-6 -163 -478 0 c-264 0
-481 3 -483 8 -3 5 96 668 102 680 0 1 199 2 441 2 l439 0 -5 -182z m926 175
c0 -5 16 -156 35 -337 19 -180 35 -332 35 -337 0 -5 -210 -9 -485 -9 l-484 0
5 213 c2 116 7 272 10 345 l6 132 439 0 c241 0 439 -3 439 -7z m924 -10 c6
-19 156 -664 156 -669 0 -2 -218 -4 -485 -4 -381 0 -485 3 -485 13 0 6 -16
160 -35 341 -19 180 -35 330 -35 332 0 2 198 4 439 4 410 0 440 -1 445 -17z
m1041 -323 c67 -184 120 -338 118 -342 -4 -8 -963 -11 -963 -3 0 6 -150 647
-156 668 -5 16 19 17 437 15 l443 -3 121 -335z m961 5 c90 -184 164 -339 164
-345 0 -7 -155 -10 -479 -10 l-479 0 -112 313 c-62 171 -119 327 -126 345
l-13 32 440 0 441 0 164 -335z m962 5 c111 -182 205 -337 208 -345 5 -13 -51
-15 -473 -15 l-479 0 -165 336 c-90 185 -165 340 -167 345 -2 5 179 9 435 9
l438 -1 203 -329z m-7950 -587 c-45 -109 -122 -299 -173 -423 l-92 -225 -541
-3 -541 -2 42 78 c23 43 125 234 227 425 l185 346 487 1 486 0 -80 -197z
m1090 180 c-3 -10 -56 -201 -119 -425 l-114 -408 -537 0 c-301 0 -538 4 -538
9 0 5 73 186 161 402 89 217 165 404 170 417 l9 22 486 0 c458 0 486 -1 482
-17z m1016 0 c-5 -22 -124 -816 -124 -826 0 -4 -243 -7 -540 -7 -297 0 -540 4
-540 8 0 5 52 194 115 420 63 226 115 414 115 417 0 3 220 5 489 5 461 0 489
-1 485 -17z m1012 -230 c-3 -137 -9 -328 -12 -425 l-6 -178 -540 0 -541 0 6
35 c3 20 31 205 62 413 31 207 58 383 61 390 3 9 109 12 490 12 l486 0 -6
-247z m1062 -165 c23 -227 43 -419 42 -425 0 -10 -115 -13 -541 -13 l-541 0 6
148 c3 81 9 272 12 425 l6 277 487 0 486 0 43 -412z m1006 260 c20 -84 65
-276 100 -425 l63 -273 -542 0 -541 0 -42 408 c-24 224 -42 415 -42 425 0 16
30 17 484 17 l484 0 36 -152z m1132 -273 l152 -420 -536 -3 c-295 -1 -539 1
-543 5 -3 5 -47 186 -98 403 -50 217 -94 405 -97 418 l-6 22 488 -2 488 -3
152 -420z m1066 3 l206 -423 -536 -3 c-294 -1 -537 0 -540 2 -6 7 -302 825
-302 837 0 5 185 9 483 9 l482 0 207 -422z"/>
</g>
</svg>
