<svg width="1920" height="355" viewBox="0 0 1920 355" fill="none" xmlns="http://www.w3.org/2000/svg">
<g clip-path="url(#clip0_3_38)">
<mask id="mask0_3_38" style="mask-type:luminance" maskUnits="userSpaceOnUse" x="0" y="0" width="1920" height="355">
<path d="M1920 0H0V354.57H1920V0Z" fill="white"/>
</mask>
<g mask="url(#mask0_3_38)">
<mask id="mask1_3_38" style="mask-type:luminance" maskUnits="userSpaceOnUse" x="0" y="-556" width="1920" height="911">
<path d="M1920 -555.43H0.000488281V354.57H1920V-555.43Z" fill="white"/>
</mask>
<g mask="url(#mask1_3_38)">
<path d="M331.74 160.784C349.47 159.869 368.07 160.063 386.01 160.623C397.81 161.08 408.169 85.454 419.419 86.273C431.859 87.087 445.44 164.285 458.43 164.672C467.75 164.97 478.784 122.159 487.414 122.919C497.354 123.8 505.63 167.936 514.88 169.083C528.74 170.8 542.111 172.665 555.901 174.402C571.621 176.416 584.351 179.146 598.281 181.582C611.031 183.861 623.23 186.285 637.5 188.209C649.55 189.809 662.091 191.259 674.701 192.683C690.581 194.539 706.31 196.441 722.3 198.259C736.84 200.018 751.76 201.682 764.98 203.824C776.11 205.64 787.16 207.481 799.01 209.116C809.63 210.651 820.701 212.117 833.141 213.018C853.841 214.581 870.53 217.525 887.86 220.141C899.95 222.098 912.92 223.861 926.97 225.231C929.75 225.494 932.7 225.679 935.67 225.846C925.82 228.391 915.82 230.918 906.1 233.483C894.85 236.569 883.211 239.596 871.901 242.671C861.331 245.59 849.461 248.323 837.081 250.947C822.131 253.707 807.28 256.492 791.69 259.113C781.75 260.701 771.821 262.293 761.641 263.82C755.761 264.64 750.2 265.592 743.36 266.101C731.9 263.918 719.54 261.927 707.86 259.792C695.14 257.57 682.93 255.218 669 253.281C653.39 251 636.541 248.963 617.891 247.799C607.011 247.047 595.66 246.625 584.44 246.12C576.02 245.722 567.831 245.16 559.401 244.768C549.601 244.309 540.091 243.633 530.211 243.231C493.391 241.755 457.841 239.289 421.091 237.762C409.711 237.374 398.38 236.93 386.94 236.618C371.4 236.218 355.9 235.701 340.8 234.863C332.31 234.38 323.75 233.946 315.36 233.403C302.5 232.574 290.41 231.367 278.05 230.299C262.09 228.753 246.581 227.035 230.711 225.457C213.911 223.582 196.531 221.908 180.201 219.874C167.871 218.281 155.841 216.583 142.581 215.289C124.391 213.252 104.291 212.009 84.1405 210.963C90.1505 210.062 93.3605 208.676 97.9005 207.524C106.111 205.106 114.911 202.77 123.731 200.438C134.071 197.529 145.681 194.808 157.051 192.056C167.881 189.591 177.721 186.967 188.781 184.54C196.651 182.748 205.2 181.076 212.87 179.249C223.48 176.889 234.261 174.557 245.171 172.249C251.791 170.841 258.281 169.407 265.281 168.07C272.261 166.768 279.78 165.583 287.59 164.48C300.681 162.617 315.92 161.4 331.74 160.784Z" fill="#543183" fill-opacity="0.85" stroke="#543183" stroke-opacity="0.85"/>
<path d="M549.711 166.853C560.821 166.627 571.87 167.088 582.86 167.346C590.5 167.528 598.21 167.618 605.76 167.923C615.5 168.274 625.364 136.47 634.724 137.081C651.264 138.192 666.811 172.151 680.891 174.216C686.771 175.417 699.322 162.682 705.182 163.889C721.932 167.293 733.39 184.45 754.17 186.912C763.36 188.197 772.39 189.532 782.19 190.639C795.6 192.331 810.93 193.287 824.62 194.875C834.04 195.874 843.61 196.958 854.38 197.262C862.85 197.505 871.44 197.566 880 197.6C896.71 197.588 911.401 195.847 926.581 194.71C936.211 194.009 945.311 193.067 954.281 192.094C964.561 190.959 973.14 189.31 983.73 188.274C993.59 187.2 1004.51 186.6 1014.85 185.736C1035.54 184.079 1058.16 183.653 1078.89 182.018C1089.06 181.251 1099.11 180.34 1110.05 180.083C1119.91 179.867 1129.37 179.262 1139.09 178.893C1147.85 178.556 1156.5 178.12 1165.26 177.774C1175.77 177.388 1186.33 177.054 1196.85 176.681C1209.51 176.202 1222.47 176.188 1235.22 175.833C1241.74 175.772 1248.3 175.864 1254.8 175.694C1259.23 175.58 1263.52 175.319 1267.91 175.154C1276.18 174.822 1284.8 174.875 1292.9 174.359C1299.79 173.923 1306.65 173.454 1313.74 173.15C1324.97 172.583 1336.62 172.506 1348.14 172.325C1358.36 172.27 1368.53 172.058 1378.72 171.901L1379.69 171.888C1389.21 171.87 1398.98 171.764 1408.15 172.376C1415.08 172.702 1420.94 173.538 1427.64 173.986C1412.51 175.007 1399.52 176.875 1385.98 178.495C1375.84 179.743 1365.83 181.047 1356.53 182.53C1350.92 183.408 1344.98 184.209 1339.74 185.174C1330.4 184.951 1321.38 184.419 1312.31 183.956C1291.71 182.898 1272.2 181.072 1251.05 180.432C1230.71 179.894 1209.76 179.671 1189.61 180.583C1172.41 181.247 1155.29 182.22 1140.25 184.032C1124.62 185.913 1114.15 248.651 1101.26 251.21C1087.94 253.833 1068.74 229.394 1055.66 232.059C1046 234.028 1038.98 202.703 1029.53 204.709C1017.4 207.173 1005.19 209.628 994.01 212.264C974.53 216.785 954.41 221.203 935.67 225.846C932.7 225.679 929.75 225.494 926.97 225.231C912.92 223.861 899.95 222.098 887.86 220.141C870.53 217.525 853.841 214.581 833.141 213.018C820.701 212.117 809.63 210.651 799.01 209.116C787.16 207.481 776.11 205.64 764.98 203.824C751.76 201.682 736.84 200.018 722.3 198.259C706.31 196.441 690.581 194.539 674.701 192.683C662.091 191.259 649.55 189.809 637.5 188.209C623.23 186.285 611.031 183.861 598.281 181.582C584.351 179.146 571.621 176.416 555.901 174.402C542.111 172.665 528.74 170.8 514.88 169.083C526.04 168.105 537.541 167.19 549.711 166.853Z" fill="#604A9A" fill-opacity="0.55" stroke="#604A9A" stroke-opacity="0.55"/>
<path d="M1877.26 191.216C1859.16 190.453 1840.5 190.235 1822.77 189.143C1814.94 188.67 1806.95 188.282 1799.43 187.634C1790.05 186.829 1780.71 185.997 1771.81 185.004C1749.32 182.523 1726.1 180.255 1705.07 177.301C1697.06 176.192 1688.41 175.278 1679.68 174.408C1661.34 172.91 1642 171.768 1622.09 171.493C1610.41 171.287 1598.68 171.436 1587 171.277C1575.66 171.165 1564.57 170.657 1553.56 170.156C1542.31 169.56 1530.66 169.057 1518.94 169.273C1512.9 169.379 1506.88 169.53 1500.85 169.64C1494.72 169.827 1488.58 170.039 1482.65 170.402L1481.94 170.443C1463.87 171.644 1444.96 172.378 1427.64 173.986C1412.51 175.007 1399.52 176.875 1385.98 178.495C1375.84 179.743 1365.83 181.047 1356.53 182.53C1350.92 183.408 1344.98 184.209 1339.74 185.175C1358.61 185.673 1376.64 186.941 1393.76 188.541C1408.95 189.785 1422.51 191.632 1436.39 193.342C1452.46 195.488 1469.84 197.27 1484.7 199.755C1497 201.714 1508.1 203.938 1520.32 205.918C1539.3 209.247 1558.53 212.598 1580.89 215.044C1598.57 217.085 1616.56 219.021 1634.35 221.025C1642.64 221.837 1650.06 222.97 1658.65 223.671C1673.64 221.011 1689.23 218.487 1704.48 215.886C1718.8 213.56 1733.25 211.24 1749.19 209.349C1758.57 208.238 1767.65 207.008 1777.68 206.119C1786.58 205.32 1795.75 204.642 1804.96 203.995C1818.27 203.125 1831.49 202.136 1845.43 201.722C1859.53 201.286 1873.69 200.838 1887.99 200.791C1898.74 200.852 1909.45 201.143 1920 201.547V193.47C1905.85 192.651 1891.71 191.805 1877.26 191.216Z" fill="#47246C" fill-opacity="0.55" stroke="#47246C" stroke-opacity="0.55"/>
<path d="M1217.3 173.537C1208.81 172.802 1201.63 171.633 1193.71 170.706C1185.44 169.699 1177.66 168.529 1168.68 167.766C1157.65 166.816 1147.89 165.416 1138.59 163.934C1130.64 162.478 1120.4 161.7 1111.34 160.566C1102.04 159.406 1090.17 159.971 1080.67 158.929C1072.02 158.012 1063.44 156.958 1053.62 156.603C1045.75 156.338 1037.73 156.344 1029.81 156.173C1023.51 156.057 1017.1 155.994 1010.9 156.283C997.711 156.844 984.16 157.294 971.94 158.465C963.82 159.28 957.59 160.621 951.42 161.904C941.87 163.785 932.92 165.809 925.92 168.089C921.77 169.407 917.58 170.73 912.44 171.909C905.69 173.46 897.721 174.783 890.841 176.306C883.121 178.141 876.46 180.14 868.72 181.971C860.15 183.84 849.42 185.371 837.32 186.225C830.83 186.688 823.32 186.747 817.01 186.148C812.17 185.687 807.781 185.067 802.961 184.599C795.551 183.875 788.83 182.923 781.81 182.069C773.86 181.103 766.74 179.906 758.93 178.901C752.68 178.069 738.113 142.105 733.073 140.983C716.463 138.152 716.762 151.807 701.172 148.759C690.922 146.621 672.769 134.056 660.969 132.272C653.619 131.249 642.455 117.683 636.125 116.419C623.545 113.956 619.623 88.053 609.893 85.127C602.783 82.905 589.24 145.909 583.41 143.546C578.72 141.693 573.892 120.498 568.802 118.689C564.652 117.195 557.7 103.916 552.94 102.499C544.99 100.12 547.061 85.526 536.701 83.546C532.961 82.741 520.582 60.572 520.289 56.284C518.484 29.898 504.522 82.29 491.479 82.891C480.212 83.41 447.842 0.64902 436.762 0.00501988C425.232 -0.57998 411.893 53.47 399.693 53.385C384.513 53.342 367.923 88.422 355.723 90.104C342.593 92.104 345.241 111.019 335.031 113.566C327.731 115.388 324.87 131.395 316.94 133.113C307 135.592 296.36 138.006 283.57 139.942C277.19 140.901 271.2 141.954 265.1 142.98C264.36 143.157 263.66 143.343 262.97 143.528C257.51 144.221 252.61 145.069 246.99 145.715C239.17 146.592 231.29 147.452 223.77 148.427C214.51 149.733 207.22 151.485 200.36 153.252C192.44 155.276 183.41 157.158 172.58 158.593C163.59 159.998 154.29 161.325 144.29 162.444C135.83 163.526 126.29 164.527 115.89 164.448C105.28 164.356 93.9805 164.384 84.5305 163.286C70.7605 161.969 59.3705 159.938 48.1205 157.939C40.9605 156.705 34.0605 155.413 26.8605 154.188C20.1705 153.054 15.3805 151.58 10.2305 150.188C7.00049 149.299 3.17049 148.5 0.000488281 147.603V168.331V209.367C5.04049 209.385 10.0805 209.393 15.1205 209.412C21.0005 209.338 26.9705 209.514 32.7905 209.308C38.5705 208.821 42.8005 207.852 47.5705 207.076C55.5405 205.628 63.8205 204.246 71.7805 202.795C85.8405 200.301 96.9105 197.256 109.64 194.52C116.54 193.191 123.1 191.799 129.84 190.439C139.45 188.502 150.29 186.812 161.77 185.32C168.45 184.409 174.68 183.367 181.81 182.583C192.06 181.437 202.18 180.234 212.87 179.249C223.48 176.889 234.26 174.557 245.17 172.249C251.79 170.841 258.28 169.407 265.28 168.07C272.26 166.768 279.78 165.583 287.59 164.48C300.68 162.617 315.92 161.4 331.74 160.784C349.47 159.869 368.07 160.063 386.01 160.623C397.81 161.08 410.934 95.588 422.184 96.407C434.624 97.221 445.44 164.285 458.43 164.672C467.75 164.97 478.783 134.136 487.413 134.896C497.353 135.777 505.63 167.936 514.88 169.083C526.04 168.105 537.541 167.19 549.711 166.853C560.821 166.627 571.87 167.088 582.86 167.346C590.5 167.528 598.21 167.618 605.76 167.923C615.5 168.274 625.364 135.022 634.724 135.633C651.264 136.744 666.811 172.151 680.891 174.216C686.771 175.417 698.597 161.958 704.457 163.165C721.207 166.569 733.39 184.45 754.17 186.912C763.36 188.197 772.39 189.532 782.19 190.639C795.6 192.331 810.93 193.287 824.62 194.875C834.04 195.874 843.61 196.958 854.38 197.262C862.85 197.505 871.44 197.566 880 197.6C896.71 197.588 911.401 195.847 926.581 194.71C936.211 194.009 945.311 193.067 954.281 192.094C964.561 190.959 973.14 189.31 983.73 188.274C993.59 187.2 1004.51 186.6 1014.85 185.736C1035.54 184.079 1058.16 183.653 1078.89 182.018C1089.06 181.251 1099.11 180.34 1110.05 180.083C1119.91 179.867 1129.37 179.262 1139.09 178.893C1147.85 178.556 1156.5 178.12 1165.26 177.774C1175.77 177.388 1186.33 177.054 1196.85 176.681C1209.51 176.202 1222.47 176.188 1235.22 175.833C1230.17 174.818 1223.85 174.108 1217.3 173.537Z" fill="#8796DF" fill-opacity="0.35" stroke="#8796DF" stroke-opacity="0.35"/>
<path d="M1899.45 123.247C1892.48 122.499 1886.62 121.426 1879.84 120.621C1869.17 119.347 1857.07 12.089 1845.84 10.994C1834.56 10.052 1831.67 91.316 1820.22 90.455C1818.95 90.37 1807.41 78.146 1806.17 78.077C1796.98 77.745 1799.74 61.805 1790.43 61.788C1783.07 61.762 1771.95 101.809 1766.57 102.712C1758.47 104.009 1750.01 117.902 1743.45 119.477C1732.3 122.386 1725.59 78.554 1713.58 81.328C1705.28 83.216 1690.77 131.539 1683.19 133.55C1681.75 133.898 1666.27 122.097 1664.85 122.445C1654.38 125.016 1659.49 139.975 1648.2 142.419C1637.07 144.749 1624.5 146.812 1614.15 149.281C1605.64 151.584 1596.63 153.847 1585.26 155.639C1580.57 156.544 1575.55 157.378 1570.2 158.126C1563.69 159.052 1558.86 160.35 1552.28 161.259C1551.88 160.899 1543.84 163.834 1540.22 163.997C1537.56 164.242 1536 164.768 1534.23 165.204C1529.27 166.58 1523.78 167.879 1518.94 169.273C1530.66 169.057 1542.31 169.56 1553.56 170.156C1564.57 170.657 1575.66 171.165 1587 171.277C1598.68 171.436 1610.41 171.287 1622.09 171.493C1642 171.768 1661.34 172.91 1679.68 174.408C1688.41 175.278 1697.06 176.192 1705.07 177.301C1726.1 180.255 1749.32 182.523 1771.81 185.004C1780.71 185.997 1790.05 186.829 1799.43 187.634C1806.95 188.282 1814.94 188.67 1822.77 189.143C1840.5 190.235 1859.16 190.453 1877.26 191.216C1891.71 191.805 1905.85 192.651 1920 193.47V172.414V133.872V126.239C1913.56 125.141 1907 124.046 1899.45 123.247Z" fill="#7A7DC8" fill-opacity="0.35" stroke="#7A7DC8" stroke-opacity="0.35"/>
<path d="M181.81 182.583C192.06 181.437 202.18 180.234 212.87 179.249C205.2 181.076 196.65 182.748 188.78 184.54C177.72 186.967 167.88 189.591 157.05 192.056C145.68 194.808 134.07 197.529 123.73 200.438C114.91 202.77 106.11 205.106 97.9005 207.524C93.3605 208.676 90.1505 210.062 84.1405 210.963C74.5105 210.378 64.4605 210.16 54.5305 209.86C41.4905 209.479 28.2705 209.479 15.1205 209.412C21.0005 209.338 26.9705 209.514 32.7905 209.308C38.5705 208.821 42.8005 207.852 47.5705 207.076C55.5405 205.628 63.8205 204.246 71.7805 202.795C85.8405 200.301 96.9105 197.256 109.64 194.52C116.54 193.191 123.1 191.799 129.84 190.439C139.45 188.502 150.29 186.812 161.77 185.32C168.45 184.409 174.68 183.367 181.81 182.583Z" fill="#6D64B1" stroke="#6D64B1"/>
<path d="M1189.61 180.583C1209.76 179.671 1230.71 179.894 1251.05 180.432C1272.2 181.072 1291.71 182.898 1312.31 183.956C1321.38 184.419 1330.4 184.951 1339.74 185.174C1358.61 185.673 1376.64 186.941 1393.76 188.541C1408.95 189.785 1422.51 191.632 1436.39 193.342C1452.46 195.488 1469.84 197.27 1484.7 199.755C1497 201.714 1508.1 203.938 1520.32 205.918C1539.3 209.247 1558.53 212.598 1580.89 215.044C1598.57 217.085 1616.56 219.021 1634.35 221.025C1642.64 221.837 1650.06 222.97 1658.65 223.671C1646.22 225.641 1633.94 227.646 1621.98 229.722C1608 232.033 1593.15 234.131 1579.12 236.428C1571.65 237.592 1563.91 238.683 1556.21 239.782C1542.1 241.643 1527.5 243.36 1512.55 244.945C1503.6 245.942 1494.38 246.847 1485.68 247.928C1475.75 249.112 1466.28 250.445 1456.01 251.52C1442.79 253.049 1429.12 254.421 1415.15 255.668C1406.36 256.404 1397.19 256.946 1388.44 257.701C1371.75 259.024 1354.74 260.226 1338.8 261.88C1329.42 262.958 1320.01 264.043 1311.26 265.311C1284.24 269.483 1259.94 274.362 1230.6 277.939C1213.9 279.927 1195.86 281.419 1178.83 283.286C1164.18 284.895 1148.91 286.271 1133.37 287.514C1115.48 289.119 1097.07 290.521 1078.13 291.573C1066.94 292.095 1055.59 292.647 1044 292.58C1019.71 292.558 995.29 292.437 971.24 291.72C953.39 290.898 936.101 289.626 919.401 288.148C902.071 286.725 885.83 284.852 869.701 282.977C853.211 281.158 837.991 278.936 821.461 277.132C808.641 275.422 795.16 273.927 781.97 272.335C767.55 270.658 755.39 268.364 743.36 266.101C750.2 265.592 755.761 264.64 761.641 263.82C771.821 262.293 781.75 260.701 791.69 259.113C807.28 256.492 822.131 253.707 837.081 250.947C849.461 248.323 861.331 245.59 871.901 242.671C883.211 239.596 894.85 236.569 906.1 233.483C915.82 230.918 925.82 228.391 935.67 225.846C954.41 221.203 974.53 216.785 994.01 212.264C1005.19 209.628 1017.4 207.173 1029.53 204.709C1038.98 202.703 1043.92 228.81 1053.58 226.841C1066.66 224.176 1087.94 250.702 1101.26 248.079C1114.15 245.52 1124.62 185.913 1140.25 184.032C1155.29 182.22 1172.41 181.247 1189.61 180.583Z" fill="#3C1650" fill-opacity="0.85" stroke="#3C1650" stroke-opacity="0.85"/>
<path d="M1887.99 200.791C1873.69 200.838 1859.53 201.286 1845.43 201.722C1831.49 202.136 1818.27 203.125 1804.96 203.995C1795.75 204.642 1786.58 205.32 1777.68 206.119C1767.65 207.008 1758.57 208.238 1749.19 209.349C1733.25 211.24 1718.8 213.56 1704.48 215.886C1689.23 218.487 1673.64 221.011 1658.65 223.671C1646.22 225.641 1633.94 227.646 1621.98 229.722C1608 232.033 1593.15 234.131 1579.12 236.428C1571.65 237.592 1563.91 238.683 1556.21 239.782C1542.1 241.643 1527.5 243.36 1512.55 244.945C1503.6 245.942 1494.38 246.847 1485.68 247.928C1475.75 249.112 1466.28 250.445 1456.01 251.52C1442.79 253.049 1429.12 254.421 1415.15 255.668C1406.36 256.404 1397.19 256.946 1388.44 257.701C1371.75 259.024 1354.74 260.226 1338.8 261.88C1329.42 262.958 1320.01 264.043 1311.26 265.311C1284.24 269.483 1259.94 274.362 1230.6 277.939C1213.9 279.927 1195.86 281.419 1178.83 283.286C1164.18 284.895 1148.91 286.271 1133.37 287.514C1115.48 289.119 1097.07 290.521 1078.13 291.573C1066.94 292.095 1055.59 292.647 1044 292.58C1019.71 292.558 995.29 292.437 971.24 291.72C953.39 290.898 936.101 289.626 919.401 288.148C902.071 286.725 885.83 284.852 869.701 282.977C853.211 281.158 837.991 278.936 821.461 277.132C808.641 275.422 795.16 273.927 781.97 272.335C767.55 270.658 755.39 268.364 743.36 266.101C731.9 263.918 719.54 261.927 707.86 259.792C695.14 257.57 682.93 255.218 669 253.281C653.39 251 636.541 248.963 617.891 247.799C607.011 247.047 595.66 246.625 584.44 246.12C576.02 245.722 567.831 245.16 559.401 244.768C549.601 244.309 540.091 243.633 530.211 243.231C493.391 241.755 457.84 239.289 421.09 237.762C409.71 237.374 398.38 236.93 386.94 236.618C371.4 236.218 355.9 235.701 340.8 234.863C332.31 234.38 323.75 233.946 315.36 233.403C302.5 232.574 290.41 231.367 278.05 230.299C262.09 228.753 246.58 227.035 230.71 225.457C213.91 223.582 196.53 221.908 180.2 219.874C167.87 218.281 155.84 216.583 142.58 215.289C124.39 213.252 104.29 212.009 84.1405 210.963C74.5105 210.378 64.4605 210.16 54.5305 209.86C41.4905 209.479 28.2705 209.479 15.1205 209.412C10.0805 209.393 5.04049 209.385 0.000488281 209.367V319.725V354.57H1920V315.293V201.547C1909.45 201.143 1898.74 200.852 1887.99 200.791Z" fill="#31083D" stroke="#31083D"/>
</g>
</g>
</g>
<defs>
<clipPath id="clip0_3_38">
<rect width="1920" height="355" fill="white"/>
</clipPath>
</defs>
</svg>
